<svg xmlns="http://www.w3.org/2000/svg" viewBox="0 0 59.6 28.08"><defs><style>.cls-1{fill:#fff;}</style></defs><g id="Layer_2" data-name="Layer 2"><g id="Layer_1-2" data-name="Layer 1"><polygon class="cls-1" points="55.12 17.12 37.42 17.12 32.36 0 59.6 0 55.12 17.12"/><polygon class="cls-1" points="55.11 22.03 34.1 22.03 28.46 2.55 23.05 2.55 23.05 0.15 30.27 0.15 35.91 19.62 55.11 19.62 55.11 22.03"/><circle class="cls-1" cx="37.01" cy="25.43" r="2.65"/><circle class="cls-1" cx="52.46" cy="25.43" r="2.65"/><path class="cls-1" d="M6.06,24.68H1.81a.75.75,0,0,0,0,1.5H6.06a.75.75,0,0,0,0-1.5Z"/><path class="cls-1" d="M29.87,24.68H10.75a.75.75,0,0,0,0,1.5H29.87a.75.75,0,0,0,0-1.5Z"/><path class="cls-1" d="M29.87,18.5H4.73a.75.75,0,0,0,0,1.5H29.87a.75.75,0,0,0,0-1.5Z"/><path class="cls-1" d="M27.87,12.67H12.31a.75.75,0,0,0,0,1.5H27.87a.75.75,0,0,0,0-1.5Z"/><path class="cls-1" d="M25.75,6.42H.73a.75.75,0,0,0,0,1.5h25a.75.75,0,0,0,0-1.5Z"/><path class="cls-1" d="M17.81.67H6.06a.75.75,0,0,0,0,1.5H17.81a.75.75,0,0,0,0-1.5Z"/></g></g></svg>